0.06m3min_grf.mot
version=1
nRows=20
nColumns 19
inDegrees=yes
endheader
time	1_ground_force_vx	1_ground_force_vy	1_ground_force_vz	1_ground_force_px	1_ground_force_py	1_ground_force_pz	1_ground_torque_x	1_ground_torque_y	1_ground_torque_z	2_ground_force_vx	2_ground_force_vy	2_ground_force_vz	2_ground_force_px	2_ground_force_py	2_ground_force_pz	2_ground_torque_x	2_ground_torque_y	2_ground_torque_z
            0.005000	            6.062705	          168.555874	           -0.759801	           -0.229718	            0.005964	           -0.344856	            0.001552	            0.043136	           -0.000194	            1.695517	          153.937039	            5.898149	           -0.235998	            0.005347	           -0.617935	           -0.000673	           -0.061084	           -0.002340
            0.005500	            5.971698	          162.968210	           -0.921103	           -0.229845	            0.005967	           -0.345412	            0.005456	            0.148888	           -0.000842	            1.426237	          150.622541	            5.557945	           -0.235447	            0.005354	           -0.619302	           -0.001015	           -0.107167	           -0.003954
            0.006000	            5.880670	          159.362879	           -0.936335	           -0.229546	            0.005961	           -0.344134	            0.009326	            0.252737	           -0.001485	            1.156895	          147.308514	            5.076956	           -0.234769	            0.005356	           -0.619063	           -0.000261	           -0.033266	           -0.001146
            0.006500	            5.607133	          155.395605	           -0.631666	           -0.229168	            0.005965	           -0.344991	            0.009436	            0.261497	           -0.001063	            0.934444	          143.994353	            4.689804	           -0.234871	            0.005356	           -0.619195	            0.001158	            0.178412	            0.005811
            0.007000	            5.333713	          150.166668	           -0.378264	           -0.229237	            0.005968	           -0.345687	            0.006615	            0.186227	           -0.000469	            0.529452	          139.388765	            4.767413	           -0.234725	            0.005350	           -0.617363	            0.001303	            0.342927	            0.011729
            0.007500	            4.784918	          148.542401	            0.028848	           -0.229354	            0.005962	           -0.344195	            0.000942	            0.029248	            0.000006	            0.349260	          137.363316	            4.525624	           -0.233805	            0.005358	           -0.618688	            0.000941	            0.369978	            0.012189
            0.008000	            4.373090	          143.134744	           -0.085029	           -0.228280	            0.005963	           -0.344581	            0.000353	            0.011545	           -0.000007	            0.320999	          132.207161	            4.460319	           -0.233680	            0.005350	           -0.616281	            0.000415	            0.170757	            0.005761
            0.008500	            4.419394	          140.611034	           -0.095964	           -0.228040	            0.005963	           -0.344437	            0.002500	            0.079549	           -0.000054	            0.329762	          129.812206	            4.733345	           -0.233497	            0.005356	           -0.617784	           -0.000259	           -0.101778	           -0.003711
            0.009000	            4.007402	          136.104705	           -0.205976	           -0.227994	            0.005962	           -0.344246	            0.003396	            0.115338	           -0.000175	           -0.035773	          127.233126	            4.630450	           -0.232337	            0.005365	           -0.619166	            0.000031	           -0.109838	           -0.003997
            0.009500	            3.962493	          132.859325	           -0.082208	           -0.227451	            0.005960	           -0.343675	            0.006294	            0.211024	           -0.000131	           -0.487821	          122.629058	            4.238798	           -0.232225	            0.005355	           -0.616473	           -0.000153	            0.038492	            0.001331
            0.010000	            3.917144	          130.155331	           -0.093689	           -0.226768	            0.005963	           -0.344358	            0.007131	            0.236936	           -0.000171	           -0.899624	          119.866322	            3.947553	           -0.231494	            0.005359	           -0.616648	           -0.001988	            0.264876	            0.008723
            0.010500	            3.597485	          127.089573	            0.169103	           -0.226573	            0.005956	           -0.342745	            0.004732	            0.167183	            0.000222	           -1.217707	          117.103743	            3.703196	           -0.230708	            0.005361	           -0.616518	           -0.004405	            0.423619	            0.013396
            0.011000	            3.048468	          122.942766	            0.290258	           -0.227154	            0.005959	           -0.343536	            0.002119	            0.085464	            0.000202	           -1.393829	          113.972719	            3.645177	           -0.230656	            0.005362	           -0.616655	           -0.004637	            0.379201	            0.012128
            0.011500	            2.498846	          120.238675	            0.280029	           -0.227527	            0.005960	           -0.343830	           -0.000563	           -0.027082	           -0.000063	           -1.290201	          111.211160	            3.541425	           -0.229884	            0.005360	           -0.615471	           -0.001899	            0.163725	            0.005214
            0.012000	            2.636985	          116.273053	            0.216826	           -0.226149	            0.005962	           -0.344124	            0.000504	            0.022230	            0.000041	           -1.043865	          107.896332	            3.811067	           -0.229396	            0.005363	           -0.615715	            0.000810	           -0.083692	           -0.002956
            0.012500	            2.179522	          112.847327	            0.340846	           -0.225938	            0.005960	           -0.343768	            0.001965	            0.101736	            0.000307	           -1.408798	          105.133598	            3.566730	           -0.229319	            0.005366	           -0.616595	            0.001311	           -0.097851	           -0.003320
            0.013000	            2.362899	          110.324429	            0.146145	           -0.225522	            0.005958	           -0.343113	            0.005630	            0.262857	            0.000348	           -1.632372	          102.186044	            3.650173	           -0.228534	            0.005361	           -0.614210	           -0.000400	            0.025015	            0.000894
            0.013500	            2.271479	          107.620820	            0.043067	           -0.224834	            0.005953	           -0.342049	            0.005695	            0.269836	            0.000108	           -1.955251	          100.713682	            3.081919	           -0.228727	            0.005369	           -0.616818	           -0.004871	            0.250896	            0.007678
            0.014000	            1.768611	          104.915164	            0.399571	           -0.224832	            0.005955	           -0.342560	            0.002630	            0.156031	            0.000594	           -2.313517	           96.109283	            2.877939	           -0.228202	            0.005355	           -0.612337	           -0.009361	            0.388897	            0.011645
            0.014500	            1.081477	          101.490180	            0.340735	           -0.225578	            0.005956	           -0.342777	            0.000528	            0.049575	            0.000166	           -2.774746	           94.082302	            2.777055	           -0.227298	            0.005362	           -0.613369	           -0.009769	            0.331218	            0.009777
